# xmcd
#
# Track frame offsets: 
#        150
#        17770
#        32717
#        50795
#        66470
#        79422
#        97167
#        112955
#        127342
#        146195
#
# Disc length: 2147 seconds
#
# Revision: 0
# Processed by: cddbd v1.5.2PL0 Copyright (c) Steve Scherf et al.
# Submitted via: ExactAudioCopy v0.95b4
#
DISCID=9d08610a
DTITLE=Various Artist - Essential Bluegrass Bluegrass Legends
DYEAR=2005
DGENRE=Bluegrass
TTITLE0=01 No One to Welcome Me Home - Del McCoury, Ron McCoury, Glen 
TTITLE0=Duncan, Terry Eldridge,Larry Perkins
TTITLE1=02 Thanks Wade - Glen Duncan, Ron McCoury, David Grier, Gene W
TTITLE1=ooten, Mike Bub, Larry Perkins
TTITLE2=03 Wait Till the Clouds Roll By - Terry Eldredge, Andrea Zonn,
TTITLE2=David Grier, Mike Bub, Larry Perkins 
TTITLE3=04 The Storms Are On the Ocean - Alison Krauss, Bobby Osborne,
TTITLE3=Alisa Jones-Wall, Gary Williamson, Terry Eldredge, Larry Perk
TTITLE3=ins
TTITLE4=05 Big Tiger Roars Again - Benny Martin, Del McCoury, Gene Woo
TTITLE4=ten, Billy Rose, Larry Perkins
TTITLE5=06 On the Evening Train - Gary Williamson, Tony Williamson, Jo
TTITLE5=hn Hartford, Rob McCoury, Larry Perkins
TTITLE6=07 Instrumental in D Minor - Tony Williamson, Dewey Farmer, Va
TTITLE6=sser Clements, Terry Eldredge, Larry Perkins
TTITLE7=08 Keep My Skillet Good and Greasy - Leroy Troy, Terry Eldredg
TTITLE7=e, Larry Perkins,
TTITLE8=09 Louis Collins - Mac Wiseman, Glenn Duncan, Billy Rose, Larr
TTITLE8=y Perkins
TTITLE9=10 Foggy Mountain Top - Earl Scruggs, Sonny Osborne, John Hart
TTITLE9=ford, Terry Eldredge, Roy Husky Jr., Larry Perkins
EXTD=
EXTT0=
EXTT1=
EXTT2=
EXTT3=
EXTT4=
EXTT5=
EXTT6=
EXTT7=
EXTT8=
EXTT9=
PLAYORDER=
